<svg version="1.1" id="Layer_1" xmlns="http://www.w3.org/2000/svg" xmlns:xlink="http://www.w3.org/1999/xlink" x="0px" y="0px"
	 width="100%" viewBox="0 0 270 270" enable-background="new 0 0 270 270" xml:space="preserve">
<path fill="#000000" opacity="1.000000" stroke="none" 
	d="
M177.000000,271.000000 
	C118.000000,271.000000 59.500000,271.000000 1.000000,271.000000 
	C1.000000,181.000000 1.000000,91.000000 1.000000,1.000000 
	C91.000000,1.000000 181.000000,1.000000 271.000000,1.000000 
	C271.000000,91.000000 271.000000,181.000000 271.000000,271.000000 
	C239.833328,271.000000 208.666672,271.000000 177.000000,271.000000 
M45.249569,134.780655 
	C45.544167,140.759079 45.362167,146.805862 46.208191,152.705215 
	C53.473267,203.364685 103.783279,238.841629 153.749985,228.704437 
	C214.668152,216.345413 245.948456,152.082184 217.908813,96.894531 
	C188.334320,38.686012 110.445526,29.120605 67.810913,78.527802 
	C54.117622,94.396301 47.008404,113.049072 45.249569,134.780655 
z"/>
<path fill="#F2F2F2" opacity="1.000000" stroke="none" 
	d="
M45.287117,134.316895 
	C47.008404,113.049072 54.117622,94.396301 67.810913,78.527802 
	C110.445526,29.120605 188.334320,38.686012 217.908813,96.894531 
	C245.948456,152.082184 214.668152,216.345413 153.749985,228.704437 
	C103.783279,238.841629 53.473267,203.364685 46.208191,152.705215 
	C45.362167,146.805862 45.544167,140.759079 45.287117,134.316895 
M142.820572,223.419113 
	C144.977081,223.223373 147.154953,223.159088 149.286972,222.812637 
	C197.559418,214.968307 229.202103,171.217484 219.868973,123.219170 
	C212.962662,87.701485 190.637192,64.872864 155.826874,55.417786 
	C124.636826,46.946037 89.231773,60.108418 69.688828,87.052849 
	C48.740967,115.934280 45.115330,147.228561 62.130413,178.931305 
	C78.933662,210.239365 106.530762,224.413162 142.820572,223.419113 
z"/>
<path fill="#030303" opacity="1.000000" stroke="none" 
	d="
M142.375092,223.494705 
	C106.530762,224.413162 78.933662,210.239365 62.130413,178.931305 
	C45.115330,147.228561 48.740967,115.934280 69.688828,87.052849 
	C89.231773,60.108418 124.636826,46.946037 155.826874,55.417786 
	C190.637192,64.872864 212.962662,87.701485 219.868973,123.219170 
	C229.202103,171.217484 197.559418,214.968307 149.286972,222.812637 
	C147.154953,223.159088 144.977081,223.223373 142.375092,223.494705 
M134.553650,108.990479 
	C133.938705,108.744652 133.323776,108.498833 132.329910,107.450035 
	C129.202179,85.136757 110.207016,72.740974 89.857101,79.930779 
	C91.975395,90.302170 97.664200,97.984665 106.995346,103.666000 
	C106.995651,104.110390 106.995956,104.554787 106.475540,105.152390 
	C106.328262,105.466530 106.180977,105.780678 105.209824,106.070152 
	C102.613983,103.983673 100.416351,104.715797 97.907974,106.579155 
	C80.500320,119.510406 72.807068,142.069473 78.670540,163.447510 
	C90.053284,204.948715 139.444977,221.311340 173.833603,194.973389 
	C201.604156,173.704193 204.800537,134.426682 180.655884,111.140793 
	C173.823105,104.551041 173.823105,104.551041 165.060440,108.573135 
	C167.104568,109.844810 169.045486,111.052277 170.875336,112.942314 
	C169.824280,114.000687 168.773224,115.059059 167.067642,115.947365 
	C161.316650,112.011086 155.092957,110.203079 148.071640,110.817345 
	C148.047211,110.201416 148.022766,109.585480 148.708679,108.594337 
	C149.846680,108.397240 150.979279,108.159042 152.123474,108.009193 
	C170.651031,105.582848 181.814194,96.647667 185.526627,81.257591 
	C172.650635,76.806763 156.823105,80.043564 149.033905,89.834053 
	C145.342804,94.473534 143.495148,100.579643 140.344284,106.545975 
	C139.388779,107.379295 138.433273,108.212616 137.420288,108.330360 
	C137.510040,107.840088 137.632797,107.353279 137.684723,106.859032 
	C139.051819,93.847527 139.875687,80.743744 145.517502,68.581207 
	C146.931519,65.532852 144.543106,64.472786 142.101059,63.949909 
	C137.237503,62.908554 136.251694,66.542671 136.112778,69.819138 
	C135.559357,82.871857 135.378250,95.940369 134.553650,108.990479 
z"/>
<path fill="#F9F9F9" opacity="1.000000" stroke="none" 
	d="
M170.986389,112.259743 
	C169.045486,111.052277 167.104568,109.844810 165.060440,108.573135 
	C173.823105,104.551041 173.823105,104.551041 180.655884,111.140793 
	C204.800537,134.426682 201.604156,173.704193 173.833603,194.973389 
	C139.444977,221.311340 90.053284,204.948715 78.670540,163.447510 
	C72.807068,142.069473 80.500320,119.510406 97.907974,106.579155 
	C100.416351,104.715797 102.613983,103.983673 105.731476,106.339622 
	C106.832420,107.337852 107.411720,108.066612 107.684753,108.969208 
	C95.598877,115.986847 88.142281,125.299835 87.014168,135.240707 
	C88.129623,134.202637 88.827316,132.837479 89.797211,131.705566 
	C93.969460,126.836388 97.646683,121.324722 102.559402,117.351898 
	C114.305000,107.853432 125.913010,108.936325 135.579010,118.686119 
	C139.961716,116.260025 144.043976,114.000237 148.126251,111.740448 
	C155.092957,110.203079 161.316650,112.011086 167.550308,116.337158 
	C180.661240,127.122406 185.032990,140.932495 183.911255,156.666733 
	C182.799774,172.257156 175.937134,185.245056 164.449783,196.099625 
	C166.735092,195.727051 168.779266,195.135284 170.362183,193.935150 
	C177.894852,188.224197 183.700562,181.082214 187.604004,172.420654 
	C197.560913,150.326782 190.347702,124.161591 170.986389,112.259743 
z"/>
<path fill="#F4F4F3" opacity="1.000000" stroke="none" 
	d="
M140.812332,106.021301 
	C143.495148,100.579643 145.342804,94.473534 149.033905,89.834053 
	C156.823105,80.043564 172.650635,76.806763 185.526627,81.257591 
	C181.814194,96.647667 170.651031,105.582848 152.123474,108.009193 
	C150.979279,108.159042 149.846680,108.397240 147.997650,108.735794 
	C146.645111,108.877258 146.003601,108.877258 144.962250,108.877258 
	C151.089050,99.492310 159.951111,93.846947 169.375336,88.330841 
	C168.459991,88.031586 168.136780,87.810066 167.858719,87.856865 
	C167.045883,87.993652 166.234467,88.187363 165.451752,88.446976 
	C156.652664,91.365417 149.631531,96.690094 144.051788,104.060715 
	C143.343903,104.995804 141.909912,105.381218 140.812332,106.021301 
z"/>
<path fill="#F2F2F2" opacity="1.000000" stroke="none" 
	d="
M107.991028,108.795380 
	C107.411720,108.066612 106.832420,107.337852 106.143410,106.351959 
	C106.180977,105.780678 106.328262,105.466530 106.950363,104.924477 
	C107.282196,104.130852 107.139198,103.565132 106.996208,102.999420 
	C97.664200,97.984665 91.975395,90.302170 89.857101,79.930779 
	C110.207016,72.740974 129.202179,85.136757 132.149277,107.723358 
	C119.082680,91.919571 111.475487,86.241493 104.164505,87.460594 
	C113.278404,92.668327 121.098770,99.065399 127.677376,108.594147 
	C120.731781,107.100044 114.865479,105.838112 109.248833,104.629883 
	C108.663971,106.566780 108.327499,107.681084 107.991028,108.795380 
z"/>
<path fill="#0C0C0C" opacity="1.000000" stroke="none" 
	d="
M170.930862,112.601028 
	C190.347702,124.161591 197.560913,150.326782 187.604004,172.420654 
	C183.700562,181.082214 177.894852,188.224197 170.362183,193.935150 
	C168.779266,195.135284 166.735092,195.727051 164.449783,196.099625 
	C175.937134,185.245056 182.799774,172.257156 183.911255,156.666733 
	C185.032990,140.932495 180.661240,127.122406 167.877579,116.422188 
	C168.773224,115.059059 169.824280,114.000687 170.930862,112.601028 
z"/>
<path fill="#0C0C0C" opacity="1.000000" stroke="none" 
	d="
M107.684753,108.969208 
	C108.327499,107.681084 108.663971,106.566780 109.248833,104.629883 
	C114.865479,105.838112 120.731781,107.100044 127.677376,108.594147 
	C121.098770,99.065399 113.278404,92.668327 104.164505,87.460594 
	C111.475487,86.241493 119.082680,91.919571 132.338745,108.124847 
	C133.323776,108.498833 133.938705,108.744652 134.994720,109.291656 
	C135.712112,110.669792 135.988419,111.746735 136.440689,113.509521 
	C136.896378,111.548256 137.187073,110.297096 137.477768,109.045929 
	C138.433273,108.212616 139.388779,107.379295 140.578308,106.283638 
	C141.909912,105.381218 143.343903,104.995804 144.051788,104.060715 
	C149.631531,96.690094 156.652664,91.365417 165.451752,88.446976 
	C166.234467,88.187363 167.045883,87.993652 167.858719,87.856865 
	C168.136780,87.810066 168.459991,88.031586 169.375336,88.330841 
	C159.951111,93.846947 151.089050,99.492310 144.962250,108.877258 
	C146.003601,108.877258 146.645111,108.877258 147.642456,108.923401 
	C148.022766,109.585480 148.047211,110.201416 148.098938,111.278900 
	C144.043976,114.000237 139.961716,116.260025 135.579010,118.686119 
	C125.913010,108.936325 114.305000,107.853432 102.559402,117.351898 
	C97.646683,121.324722 93.969460,126.836388 89.797211,131.705566 
	C88.827316,132.837479 88.129623,134.202637 87.014168,135.240707 
	C88.142281,125.299835 95.598877,115.986847 107.684753,108.969208 
z"/>
<path fill="#EFEFEF" opacity="1.000000" stroke="none" 
	d="
M137.449036,108.688141 
	C137.187073,110.297096 136.896378,111.548256 136.440689,113.509521 
	C135.988419,111.746735 135.712112,110.669792 135.247559,109.297935 
	C135.378250,95.940369 135.559357,82.871857 136.112778,69.819138 
	C136.251694,66.542671 137.237503,62.908554 142.101059,63.949909 
	C144.543106,64.472786 146.931519,65.532852 145.517502,68.581207 
	C139.875687,80.743744 139.051819,93.847527 137.684723,106.859032 
	C137.632797,107.353279 137.510040,107.840088 137.449036,108.688141 
z"/>
<path fill="#F9F9F9" opacity="1.000000" stroke="none" 
	d="
M106.995773,103.332710 
	C107.139198,103.565132 107.282196,104.130852 107.210724,104.847870 
	C106.995956,104.554787 106.995651,104.110390 106.995773,103.332710 
z"/>
</svg>